pitch,Onset (ms),velocity,instrument,Measure
43,108.75982298766502,0.4409448818897638,,1
50,171.2598229876651,0.4251968503937008,,1
59,280.19973228471724,0.4803149606299212,,1
57,462.08181845251755,0.4881889763779528,,1
59,637.3992787699781,0.5118110236220472,,1
50,851.401546343674,0.3858267716535433,,1
59,976.401546343674,0.4566929133858268,,1
50,1162.5126574547855,0.3779527559055118,,1
43,1342.5013195863044,0.4015748031496063,,1
50,1507.1781903346039,0.3779527559055118,,1
59,1661.7643581350574,0.4645669291338583,,1
57,1864.3777368198644,0.4881889763779528,,1
59,2042.977510062495,0.5196850393700787,,1
50,2247.4843127835834,0.3858267716535433,,1
59,2376.95710189923,0.4724409448818897,,1
50,2589.020593962722,0.3858267716535433,,1
43,2743.4083490647627,0.4173228346456692,,2
52,2935.976376275647,0.3858267716535433,,2
60,3068.1362402212258,0.4724409448818897,,2
59,3251.5602765024046,0.4960629921259842,,2
60,3415.993383078368,0.5275590551181102,,2
52,3593.402680130522,0.4094488188976378,,2
60,3765.8800043935603,0.4960629921259842,,2
52,3984.3550610829034,0.3858267716535433,,2
43,4139.7348796770075,0.4015748031496063,,2
52,4326.639641581769,0.3858267716535433,,2
60,4452.784766298323,0.4566929133858268,,2
59,4652.314244756372,0.4881889763779528,,2
60,4830.914017999004,0.5275590551181102,,2
52,5038.504720946849,0.4015748031496063,,2
60,5160.619233418504,0.4881889763779528,,2
52,5378.499052012608,0.3858267716535433,,2
43,5508.124902352744,0.4094488188976378,,3
54,5721.378870606713,0.3858267716535433,,3
60,5846.378870606713,0.4566929133858268,,3
59,6057.89247604889,0.4803149606299212,,3
60,6210.891342262042,0.5118110236220472,,3
54,6453.578417091974,0.4173228346456692,,3
60,6547.2518864797285,0.4881889763779528,,3
54,6775.131705073834,0.3937007874015748,,3
43,6921.458235686078,0.3937007874015748,,3
54,7106.271160856146,0.3858267716535433,,3
60,7241.118099631656,0.4488188976377952,,3
59,7458.99791822576,0.4724409448818897,,3
60,7618.850525935511,0.5039370078740157,,3
54,7825.097691468391,0.4094488188976378,,3
60,7952.830117772246,0.4803149606299212,,3
54,8191.19746471102,0.3937007874015748,,3
43,8299.145310516009,0.4173228346456692,,4
55,8530.109029336872,0.3858267716535433,,4
59,8667.229210742767,0.4330708661417323,,4
57,8845.828983985397,0.4251968503937008,,4
59,9001.95710189923,0.4881889763779528,,4
55,9203.02853047066,0.4094488188976378,,4
59,9358.408349064764,0.4724409448818897,,4
55,9539.496784438912,0.3937007874015748,,4
43,9924.587487386758,0.3937007874015748,,4
55,9987.08748738676,0.3858267716535433,,4
59,10053.816512330068,0.4251968503937008,,4
57,10222.325582624851,0.4330708661417323,,4
59,10406.78703387202,0.4803149606299212,,4
55,10591.356194869752,0.4173228346456692,,4
59,10739.576149518276,0.4724409448818897,,4
54,10995.54553727338,0.3937007874015748,,4
43,11105.675922760907,0.4173228346456692,,5
52,11300.335786706488,0.3858267716535433,,5
59,11435.335786706486,0.4094488188976378,,5
57,11633.765491921906,0.4409448818897638,,5
59,11791.435559949115,0.4960629921259842,,5
55,11990.965038407167,0.4330708661417323,,5
54,12203.136240221229,0.3937007874015748,,5
55,12324.944630243905,0.3937007874015748,,5
52,12511.118099631656,0.4015748031496063,,5
55,12682.144176729162,0.3858267716535433,,5
54,12883.827850198551,0.3858267716535433,,5
55,13016.123768565898,0.3858267716535433,,5
47,13209.394743622586,0.3937007874015748,,5
50,13396.543269699685,0.3858267716535433,,5
49,13552.626036139594,0.3858267716535433,,5
47,13730.522861536416,0.3858267716535433,,5
49,13918.37433545932,0.4173228346456692,,6
55,14068.686126842542,0.4094488188976378,,6
57,14243.102226615783,0.4881889763779528,,6
55,14421.701999858413,0.4724409448818897,,6
57,14580.914017999004,0.5039370078740157,,6
55,14745.698598497873,0.4724409448818897,,6
57,14934.281364937779,0.4960629921259842,,6
55,15112.88113818041,0.4803149606299212,,6
49,15308.35165972236,0.3937007874015748,,6
55,15470.080684665669,0.4094488188976378,,6
57,15625.460503259774,0.4803149606299212,,6
55,15804.366398951384,0.4881889763779528,,6
57,15982.660049745034,0.5196850393700787,,6
55,16161.259822987668,0.4881889763779528,,6
57,16320.42648965433,0.4960629921259842,,6
55,16518.459369472923,0.4724409448818897,,6
54,16729.440095096506,0.4488188976377952,,7
57,16852.43896130966,0.4488188976377952,,7
62,17020.460503259772,0.5118110236220472,,7
61,17232.858462443448,0.5196850393700787,,7
62,17365.018326389025,0.5433070866141733,,7
57,17536.4752424888,0.4881889763779528,,7
55,17745.437827522812,0.4015748031496063,,7
57,17900.817646116913,0.4015748031496063,,7
54,18102.501319586303,0.4015748031496063,,7
57,18227.592022534147,0.4015748031496063,,7
55,18436.61696584481,0.3858267716535433,,7
57,18595.386807114646,0.4015748031496063,,7
50,18811.57161437088,0.3937007874015748,,7
54,18983.011523667934,0.3858267716535433,,7
52,19154.45143296499,0.3858267716535433,,7
50,19306.395877409435,0.3779527559055118,,7
40,19484.99565065206,0.4173228346456692,,8
47,19547.49565065206,0.3858267716535433,,8
55,19815.006988520545,0.3858267716535433,,8
54,20063.022861536418,0.3858267716535433,,8
55,20176.174788974058,0.4173228346456692,,8
47,20330.82331505116,0.3858267716535433,,8
55,20503.759822987664,0.3937007874015748,,8
47,20711.97410870195,0.3858267716535433,,8
40,20899.55347378131,0.4015748031496063,,8
47,21092.393609835737,0.3858267716535433,,8
55,21224.553473781314,0.4015748031496063,,8
54,21412.864131377686,0.4566929133858268,,8
55,21554.610163123718,0.4960629921259842,,8
47,21749.270027069295,0.3937007874015748,,8
55,21897.48998171782,0.4566929133858268,,8
47,22085.60222661578,0.3858267716535433,,8
40,22388.759822987664,0.4173228346456692,,9
49,22497.971841128256,0.3858267716535433,,9
50,22629.689528203082,0.3937007874015748,,9
52,22808.731478316462,0.4094488188976378,,9
50,22972.569346797187,0.4173228346456692,,9
49,23167.229210742764,0.3858267716535433,,9
47,23321.310843395826,0.3858267716535433,,9
45,23499.91061663846,0.3858267716535433,,9
55,23658.328983985397,0.4803149606299212,,9
54,23857.110163123714,0.4960629921259842,,9
52,24013.1475780897,0.4724409448818897,,9
62,24172.648711876554,0.5275590551181102,,9
61,24369.689528203082,0.5511811023622047,,9
59,24538.748485119184,0.5354330708661418,,9
57,24710.18839441624,0.5275590551181102,,9
55,24880.347124574964,0.4881889763779528,,9
54,25130.347124574964,0.4881889763779528,,10
52,25247.72807695592,0.3937007874015748,,10
50,25397.047804847076,0.3858267716535433,,10
62,25503.788167658866,0.5118110236220472,,10
57,25752.04780484707,0.5275590551181102,,10
62,25933.487714144125,0.5354330708661418,,10
54,26132.46730598086,0.4881889763779528,,10
57,26264.62716992644,0.4724409448818897,,10
50,26466.446897817597,0.3937007874015748,,10
52,26657.949165391296,0.3858267716535433,,10
54,26837.127169926443,0.3858267716535433,,10
57,26955.806308248433,0.3937007874015748,,10
55,27131.889074688344,0.4015748031496063,,10
54,27381.889074688344,0.3858267716535433,,10
52,27514.82558262485,0.3858267716535433,,10
50,27672.008122307383,0.3858267716535433,,10
56,27842.546671060223,0.4251968503937008,,11
50,28060.42648965433,0.3858267716535433,,11
53,28208.646444302853,0.3858267716535433,,11
52,28384.604494189476,0.3858267716535433,,11
53,28563.204267432106,0.4015748031496063,,11
50,28722.966172194014,0.3779527559055118,,11
56,28873.963904620316,0.4094488188976378,,11
50,29112.28590008517,0.3858267716535433,,11
59,29231.163451105578,0.5118110236220472,,11
50,29448.941228883352,0.3937007874015748,,11
53,29611.582952239365,0.3937007874015748,,11
52,29790.182725481995,0.3858267716535433,,11
53,29946.968439767712,0.4015748031496063,,11
50,30140.925355867483,0.3858267716535433,,11
56,30279.542135912834,0.4566929133858268,,11
50,30507.02512911011,0.3937007874015748,,11
48,30650.528530470656,0.4173228346456692,,12
52,30849.904947704217,0.3858267716535433,,12
57,30974.904947704217,0.4881889763779528,,12
59,31172.541002125985,0.5275590551181102,,12
60,31351.140775368614,0.5433070866141733,,12
57,31506.52059396272,0.5196850393700787,,12
52,31702.161183531884,0.4330708661417323,,12
50,31878.544403486536,0.3858267716535433,,12
48,32026.764358135053,0.3937007874015748,,12
52,32222.937827522815,0.3779527559055118,,12
57,32376.299505527346,0.4724409448818897,,12
59,32554.89927876998,0.5196850393700787,,12
60,32737.988847930977,0.5433070866141733,,12
57,32912.09882525524,0.5118110236220472,,12
54,33136.2088025795,0.4645669291338583,,12
52,33234.81424475637,0.3858267716535433,,12
51,33441.54893863392,0.4173228346456692,,13
54,33626.49791822576,0.3858267716535433,,13
51,33787.60336040262,0.3858267716535433,,13
54,33934.38907468835,0.3779527559055118,,13
57,34098.66912003982,0.4488188976377952,,13
54,34332.60902933687,0.4330708661417323,,13
57,34450.14304294231,0.4803149606299212,,13
54,34691.242816184946,0.4566929133858268,,13
51,34839.46277083347,0.4015748031496063,,13
54,35017.04213591283,0.3937007874015748,,13
51,35205.5625440761,0.3858267716535433,,13
54,35353.78249872463,0.3858267716535433,,13
57,35482.56934679719,0.4488188976377952,,13
54,35723.25528784027,0.4251968503937008,,13
57,35844.88227196725,0.4803149606299212,,13
54,36068.289301445715,0.4566929133858268,,13
55,36166.17478897405,0.4803149606299212,,14
54,36457.71673908743,0.4251968503937008,,14
52,36577.08181845253,0.3858267716535433,,14
55,36725.30177310104,0.4094488188976378,,14
54,36943.181591695145,0.4094488188976378,,14
55,37082.39360983574,0.4173228346456692,,14
57,37262.84145564072,0.4724409448818897,,14
54,37462.81311096952,0.4330708661417323,,14
55,37582.50131958631,0.4566929133858268,,14
54,37811.14644430285,0.4173228346456692,,14
52,37971.82104747745,0.3858267716535433,,14
50,38153.99224929152,0.3858267716535433,,14
48,38309.372067885626,0.4015748031496063,,14
47,38480.6475780897,0.3858267716535433,,14
45,38680.80063931419,0.3858267716535433,,14
43,38859.30970960898,0.3858267716535433,,14
42,39023.77116085615,0.4173228346456692,,15
48,39202.37093409878,0.3858267716535433,,15
50,39380.9707073414,0.3858267716535433,,15
48,39516.42989101488,0.3858267716535433,,15
50,39721.639641581765,0.4015748031496063,,15
48,39880.880004393555,0.3779527559055118,,15
50,40078.92989101487,0.3858267716535433,,15
48,40223.75982298767,0.3937007874015748,,15
42,40429.349392148666,0.4015748031496063,,15
48,40589.859596230286,0.3858267716535433,,15
50,40759.27002706929,0.4094488188976378,,15
48,40932.739414824406,0.4173228346456692,,15
50,41120.528530470656,0.4724409448818897,,15
48,41252.68839441623,0.4409448818897638,,15
50,41470.27909736408,0.4645669291338583,,15
48,41618.499052012616,0.4330708661417323,,15
43,41707.217872874295,0.4251968503937008,,16
47,41978.8902084752,0.3937007874015748,,16
53,42168.90721527791,0.4724409448818897,,16
52,42350.69859849787,0.4881889763779528,,16
53,42490.98204520989,0.5196850393700787,,16
47,42681.486580357276,0.4251968503937008,,16
53,42865.01832638903,0.4803149606299212,,16
47,43011.010389881085,0.4015748031496063,,16
43,43231.118099631654,0.4015748031496063,,16
47,43356.118099631654,0.3858267716535433,,16
53,43549.8029068879,0.4566929133858268,,16
52,43745.437827522815,0.4803149606299212,,16
53,43908.465038407165,0.5039370078740157,,16
47,44068.85619486975,0.4015748031496063,,16
53,44259.75755541398,0.4724409448818897,,16
47,44431.19746471101,0.3937007874015748,,16
43,44611.616965844805,0.4173228346456692,,17
48,44755.02399532326,0.3858267716535433,,17
52,44980.06367786295,0.4173228346456692,,17
50,45135.44349645705,0.4173228346456692,,17
52,45301.9117504253,0.4724409448818897,,17
48,45483.05687514186,0.4015748031496063,,17
52,45654.49678443891,0.4566929133858268,,17
48,45803.40268013052,0.3937007874015748,,17
43,45965.99338307838,0.4015748031496063,,17
48,46168.816512330064,0.3858267716535433,,17
52,46365.58521981306,0.4251968503937008,,17
50,46534.9162855727,0.4173228346456692,,17
52,46706.356194869746,0.4803149606299212,,17
48,46857.37093409878,0.4015748031496063,,17
52,47076.82104747746,0.4645669291338583,,17
48,47208.98091142303,0.4015748031496063,,17
43,47303.226943169066,0.4251968503937008,,18
54,47566.180457908304,0.4645669291338583,,18
60,47701.991115504665,0.5275590551181102,,18
59,47900.160049745034,0.5354330708661418,,18
60,48075.22240802167,0.5511811023622047,,18
54,48295.75528784027,0.5118110236220472,,18
60,48412.73941482439,0.5275590551181102,,18
54,48617.12716992643,0.4881889763779528,,18
43,48786.855061082904,0.4015748031496063,,18
54,48971.758689200826,0.4173228346456692,,18
60,49106.514925028474,0.5118110236220472,,18
59,49305.73828103756,0.5196850393700787,,18
60,49484.338054280175,0.5354330708661418,,18
54,49690.49451686521,0.4645669291338583,,18
60,49795.09769146839,0.5039370078740157,,18
54,50056.594290107845,0.4251968503937008,,18
43,50164.45143296498,0.4173228346456692,,19
50,50329.814244756366,0.3937007874015748,,19
59,50524.47410870194,0.3937007874015748,,19
57,50711.31651233007,0.4251968503937008,,19
59,50867.353927296055,0.4881889763779528,,19
55,51068.51605881534,0.4330708661417323,,19
54,51275.789301445715,0.3937007874015748,,19
52,51404.89360983574,0.3858267716535433,,19
50,51581.095423894694,0.4015748031496063,,19
48,51747.77342842984,0.3858267716535433,,19
47,51923.35165972236,0.3779527559055118,,19
45,52113.873201672475,0.3858267716535433,,19
43,52308.53306561805,0.4015748031496063,,19
42,52456.75302026657,0.3779527559055118,,19
40,52624.349392148666,0.3858267716535433,,19
38,52831.29383659311,0.3858267716535433,,19
37,52893.793836593104,0.4094488188976378,,20
45,52960.42648965435,0.3779527559055118,,20
52,53310.369800311935,0.3937007874015748,,20
54,53508.612430697416,0.4251968503937008,,20
55,53614.79156901941,0.4881889763779528,,20
52,53856.45256675184,0.4488188976377952,,20
54,54034.0319318312,0.4724409448818897,,20
55,54171.15211323709,0.4881889763779528,,20
37,54416.152113237105,0.4803149606299212,,20
45,54547.63170507383,0.3858267716535433,,20
52,54684.9729749151,0.4409448818897638,,20
54,54880.131705073836,0.4803149606299212,,20
55,55036.991115504665,0.5196850393700787,,20
52,55262.030798044354,0.4724409448818897,,20
54,55417.93215858858,0.4803149606299212,,20
55,55558.99224929152,0.4881889763779528,,20
36,55802.093156320996,0.4803149606299212,,21
45,55980.43215858858,0.3858267716535433,,21
50,56149.87093409878,0.3779527559055118,,21
52,56310.40948285162,0.3937007874015748,,21
54,56469.530798044354,0.4645669291338583,,21
50,56644.38907468834,0.3937007874015748,,21
52,56822.98884793098,0.4173228346456692,,21
54,56989.33238534594,0.4645669291338583,,21
36,57180.18839441624,0.4330708661417323,,21
45,57364.33238534594,0.3858267716535433,,21
50,57521.39020847519,0.3858267716535433,,21
52,57692.830117772246,0.4094488188976378,,21
54,57864.270027069295,0.4724409448818897,,21
50,58049.96730598086,0.4015748031496063,,21
52,58207.14984566341,0.4251968503937008,,21
54,58401.809709608984,0.4645669291338583,,21
36,58562.54667106023,0.4645669291338583,,22
45,58751.77569600353,0.3937007874015748,,22
50,58919.746217545486,0.3937007874015748,,22
54,59087.56934679719,0.4566929133858268,,22
57,59230.505854733696,0.5196850393700787,,22
61,59422.94349645705,0.5354330708661418,,22
62,59601.88907468834,0.5433070866141733,,22
45,60690.743949971795,0.4251968503937008,,22
47,60836.16345110558,0.4094488188976378,,22
48,60993.1475780897,0.4094488188976378,,22
50,61193.36299759085,0.4488188976377952,,22
52,61371.96277083347,0.4724409448818897,,22
54,61510.811977182675,0.5039370078740157,,22
55,61682.72240802168,0.5039370078740157,,22
57,61861.32218126431,0.5433070866141733,,23
54,62073.31197718267,0.4803149606299212,,23
50,62214.372067885626,0.3858267716535433,,23
52,62411.10676176318,0.3858267716535433,,23
54,62582.54667106023,0.4330708661417323,,23
55,62707.881138180404,0.4803149606299212,,23
57,62909.700866071566,0.5118110236220472,,23
59,63088.30063931419,0.5354330708661418,,23
60,63246.49224929153,0.5511811023622047,,23
57,63445.50018579946,0.5275590551181102,,23
54,63644.71220394004,0.4881889763779528,,23
55,63739.33238534594,0.4645669291338583,,23
57,63922.81877990378,0.4881889763779528,,23
59,64136.67932412145,0.5039370078740157,,23
60,64315.27909736409,0.5118110236220472,,23
62,64484.785900085175,0.5275590551181102,,23
63,64649.25868920081,0.5669291338582677,,24
62,64857.705401218955,0.5275590551181102,,24
61,65005.39247604889,0.5196850393700787,,24
62,65185.05800892871,0.5196850393700787,,24
62,65293.997918225745,0.5275590551181102,,24
60,65520.24508375863,0.4803149606299212,,24
59,65720.8573286566,0.4330708661417323,,24
60,65876.23714725071,0.4251968503937008,,24
60,65961.95710189923,0.4330708661417323,,24
57,66210.21673908744,0.3858267716535433,,24
54,66435.73261210331,0.3858267716535433,,24
52,66572.10449418948,0.3858267716535433,,24
50,66741.07274815773,0.4015748031496063,,24
45,66924.61583205796,0.3858267716535433,,24
47,67103.21560530057,0.3858267716535433,,24
48,67258.5954238947,0.3937007874015748,,24
38,67483.63510643438,0.4094488188976378,,25
45,67546.13510643436,0.3858267716535433,,25
50,67822.66004974503,0.3858267716535433,,25
54,67996.21447151374,0.3858267716535433,,25
57,68101.75302026658,0.4566929133858268,,25
59,68309.72354180853,0.4960629921259842,,25
60,68485.57388194458,0.5118110236220472,,25
57,68664.17365518722,0.4960629921259842,,25
59,68842.77342842985,0.5118110236220472,,25
55,69021.37320167247,0.4566929133858268,,25
50,69213.36299759084,0.3858267716535433,,25
48,69361.58295223936,0.3858267716535433,,25
47,69530.23374589015,0.3937007874015748,,25
43,69750.90268013052,0.3779527559055118,,25
45,69891.15211323708,0.3858267716535433,,25
47,70050.58521981306,0.3858267716535433,,25
38,70271.57161437089,0.4173228346456692,,26
43,70413.4423626702,0.3858267716535433,,26
47,70499.65551459765,0.3858267716535433,,26
50,70779.54213591284,0.3937007874015748,,26
55,70916.31084339583,0.4566929133858268,,26
57,71094.91061663844,0.4960629921259842,,26
59,71273.51038988109,0.5196850393700787,,26
55,71475.33011777225,0.5039370078740157,,26
61,71630.70993636634,0.5433070866141733,,26
58,71784.96163704662,0.5275590551181102,,26
57,71979.6215009922,0.5196850393700787,,26
58,72166.50925609423,0.5196850393700787,,26
58,72277.28590008516,0.5275590551181102,,26
57,72500.48884793097,0.5118110236220472,,26
56,72679.08862117359,0.4881889763779528,,26
57,72862.39360983572,0.4803149606299212,,26
57,73101.1407753686,0.5118110236220472,,27
55,73214.88794090149,0.4330708661417323,,27
54,73405.76662570874,0.3937007874015748,,27
55,73525.6475780897,0.3937007874015748,,27
55,73634.58748738676,0.4015748031496063,,27
52,73911.9004125568,0.3858267716535433,,27
49,74082.01379124162,0.3858267716535433,,27
47,74254.78023115094,0.3858267716535433,,27
45,74449.4400950965,0.3937007874015748,,27
49,74621.70766879265,0.3858267716535433,,27
52,74799.06594543664,0.3858267716535433,,27
55,74931.22580938222,0.3937007874015748,,27
57,75111.97977763618,0.4881889763779528,,27
61,75306.63964158177,0.5196850393700787,,27
62,75467.02512911012,0.5354330708661418,,27
61,75649.51946017587,0.5354330708661418,,27
62,75791.20880257951,0.5590551181102362,,28
57,75979.60449418948,0.4960629921259842,,28
54,76210.27909736408,0.4015748031496063,,28
52,76335.27909736408,0.3858267716535433,,28
54,76529.93896130966,0.4015748031496063,,28
57,76670.78363251146,0.4488188976377952,,28
50,76873.03419940491,0.3937007874015748,,28
54,77060.53419940491,0.3937007874015748,,28
45,77224.81424475636,0.3937007874015748,,28
50,77416.22580938222,0.3858267716535433,,28
49,77587.00245337315,0.3858267716535433,,28
47,77730.01832638902,0.3858267716535433,,28
45,77924.6781903346,0.4015748031496063,,28
43,78119.33805428019,0.3858267716535433,,28
42,78267.55800892871,0.3858267716535433,,28
40,78467.6543808108,0.3858267716535433,,28
38,78651.70766879266,0.4173228346456692,,29
60,78881.9684397677,0.3937007874015748,,29
59,79124.75755541398,0.4409448818897638,,29
57,79319.41741935955,0.4488188976377952,,29
55,79481.94009509649,0.4015748031496063,,29
54,79667.56934679719,0.3858267716535433,,29
52,79856.95710189923,0.3858267716535433,,29
50,80017.73941482439,0.3937007874015748,,29
60,80153.39701119628,0.4960629921259842,,29
59,80351.71900666114,0.5196850393700787,,29
57,80530.31877990376,0.5118110236220472,,29
55,80708.91855314639,0.4960629921259842,,29
54,80883.67478897405,0.4251968503937008,,29
52,81080.25642162711,0.3858267716535433,,29
50,81228.47637627565,0.3858267716535433,,29
48,81376.51492502847,0.4094488188976378,,30
59,81578.69746471102,0.4094488188976378,,30
57,81757.29723795364,0.4645669291338583,,30
55,81914.23601346386,0.4330708661417323,,30
54,82167.35392729605,0.4094488188976378,,30
52,82280.33578670648,0.3937007874015748,,30
50,82451.77569600353,0.3858267716535433,,30
48,82596.13510643438,0.3858267716535433,,30
47,82805.6759227609,0.3937007874015748,,30
57,82961.05574135501,0.3937007874015748,,30
55,83131.17478897405,0.4251968503937008,,30
54,83341.4752424888,0.4488188976377952,,30
52,83487.19519713732,0.4173228346456692,,30
50,83674.69519713733,0.3937007874015748,,30
48,83823.89587740944,0.3858267716535433,,30
47,84017.95483432553,0.3858267716535433,,30
45,84190.75528784026,0.4094488188976378,,31
55,84366.63397264753,0.3937007874015748,,31
54,84555.4945168652,0.4330708661417323,,31
52,84706.81537854322,0.4330708661417323,,31
54,84886.19746471102,0.4803149606299212,,31
57,85023.37433545932,0.5118110236220472,,31
50,85264.47410870194,0.4330708661417323,,31
57,85389.47410870195,0.5039370078740157,,31
52,85607.35392729605,0.4566929133858268,,31
57,85748.99224929152,0.4881889763779528,,31
54,85950.23374589016,0.4645669291338583,,31
57,86075.23374589015,0.4960629921259842,,31
55,86284.7915690194,0.5039370078740157,,31
57,86442.49565065207,0.5118110236220472,,31
52,86659.21333772689,0.4488188976377952,,31
57,86797.37093409877,0.4881889763779528,,31
54,87007.89814498313,0.4881889763779528,,32
57,87131.3505259355,0.4803149606299212,,32
50,87356.39020847518,0.3858267716535433,,32
57,87493.19292956362,0.4330708661417323,,32
55,87667.14984566341,0.4488188976377952,,32
57,87845.74961890602,0.4645669291338583,,32
52,88053.95256675183,0.3858267716535433,,32
57,88178.95256675183,0.4566929133858268,,32
54,88435.33578670649,0.4094488188976378,,32
57,88521.83238534593,0.4488188976377952,,32
50,88741.63964158177,0.3858267716535433,,32
57,88887.93215858856,0.4173228346456692,,32
55,89072.72807695591,0.4251968503937008,,32
57,89230.81197718268,0.4645669291338583,,32
52,89448.69179577679,0.3858267716535433,,32
57,89585.30744203528,0.4488188976377952,,32
54,89796.01605881534,0.4330708661417323,,33
57,89916.57161437087,0.4566929133858268,,33
50,90144.3267164117,0.3858267716535433,,33
57,90276.48658035728,0.4251968503937008,,33
52,90473.43102480173,0.3937007874015748,,33
57,90625.55120620762,0.4330708661417323,,33
54,90851.35619486973,0.4015748031496063,,33
57,90968.43102480173,0.4645669291338583,,33
55,91169.48544657041,0.4488188976377952,,33
57,91324.86526516454,0.4645669291338583,,33
57,91433.8051744616,0.4645669291338583,,33
57,91514.87093409877,0.4803149606299212,,33
59,91860.66458489241,0.5039370078740157,,33
57,92043.51038988108,0.4724409448818897,,33
50,92241.08408602621,0.3858267716535433,,33
57,92373.24394997177,0.4015748031496063,,33
57,92482.18385926886,0.4645669291338583,,34
57,92818.62943750013,0.4645669291338583,,34
59,92909.0432696997,0.4881889763779528,,34
57,93087.64304294229,0.4803149606299212,,34
60,93243.58975496046,0.5118110236220472,,34
57,93444.84258942757,0.4724409448818897,,34
50,93623.44236267022,0.3779527559055118,,34
57,93781.12943750013,0.3858267716535433,,34
59,93957.42195450694,0.4566929133858268,,34
57,94136.02172774957,0.4409448818897638,,34
60,94291.4015463437,0.4803149606299212,,34
57,94454.44009509654,0.4488188976377952,,34
62,94648.60109282893,0.5196850393700787,,34
57,94827.20086607158,0.4566929133858268,,34
59,94978.46503840716,0.4645669291338583,,34
57,95184.40041255682,0.4409448818897638,,34
60,95339.78023115093,0.4881889763779528,,35
57,95519.11696584482,0.4094488188976378,,35
59,95696.9797776362,0.4330708661417323,,35
57,95875.57955087881,0.3937007874015748,,35
60,96033.06821301034,0.4724409448818897,,35
57,96232.7790973641,0.4173228346456692,,35
57,96318.49905201262,0.4015748031496063,,35
57,96380.99905201262,0.3937007874015748,,35
59,96745.35846244346,0.4251968503937008,,35
57,96923.95823568608,0.3858267716535433,,35
57,97009.6781903346,0.3937007874015748,,35
57,97223.72580938223,0.3858267716535433,,35
59,97436.53760076546,0.4251968503937008,,35
57,97615.13737400807,0.3937007874015748,,35
55,97793.9072152779,0.3858267716535433,,35
57,97972.33692049334,0.3858267716535433,,35
57,98104.49678443892,0.4173228346456692,,36
57,98283.09655768154,0.3937007874015748,,36
55,98508.13624022121,0.3858267716535433,,36
57,98663.51605881534,0.3858267716535433,,36
57,98772.45596811238,0.4094488188976378,,36
57,98854.66685246614,0.3937007874015748,,36
54,99235.0863535999,0.3858267716535433,,36
57,99331.47524248881,0.3937007874015748,,36
55,99526.22014044797,0.4015748031496063,,36
57,99711.89474362257,0.3937007874015748,,36
54,99920.84599078812,0.3858267716535433,,36
57,100045.87433545929,0.4015748031496063,,36
55,100224.47410870195,0.4015748031496063,,36
57,100403.07388194457,0.4015748031496063,,36
52,100608.31764611694,0.3858267716535433,,36
57,100760.27342842983,0.4015748031496063,,36
54,100949.48544657041,0.4251968503937008,,37
57,101094.25302026658,0.4173228346456692,,37
50,101296.07274815773,0.3858267716535433,,37
52,101474.67252140035,0.3858267716535433,,37
53,101630.05233999445,0.3937007874015748,,37
50,101800.78363251148,0.3858267716535433,,37
54,102001.34485700127,0.3858267716535433,,37
50,102116.99111550467,0.3858267716535433,,37
55,102298.01152366794,0.4015748031496063,,37
50,102515.66458489241,0.3858267716535433,,37
56,102655.21107015321,0.4173228346456692,,37
50,102883.27796357723,0.3779527559055118,,37
57,103012.41061663846,0.4645669291338583,,37
50,103224.64417672917,0.3858267716535433,,37
58,103349.64417672915,0.4803149606299212,,37
50,103567.52399532325,0.3858267716535433,,37
59,103703.58975496046,0.5196850393700787,,38
50,103928.62943750013,0.3937007874015748,,38
60,104056.45823568608,0.5039370078740157,,38
50,104276.50358716,0.4094488188976378,,38
61,104417.98884793097,0.5275590551181102,,38
50,104594.88794090149,0.4015748031496063,,38
62,104705.52853047065,0.5275590551181102,,38
50,104884.1283037133,0.3937007874015748,,38
63,105088.57841709198,0.5354330708661418,,38
50,105334.20766879266,0.3937007874015748,,38
64,105466.36753273824,0.5118110236220472,,38
50,105651.07841709198,0.3858267716535433,,38
65,105796.24281618495,0.5275590551181102,,38
50,106037.34258942757,0.3858267716535433,,38
66,106157.54667106022,0.5196850393700787,,38
50,106347.54667106022,0.3858267716535433,,38
67,106491.52626289698,0.5433070866141733,,39
59,106693.34599078812,0.4803149606299212,,39
50,106892.0478048471,0.3858267716535433,,39
59,107019.54213591284,0.3937007874015748,,39
67,107205.9253558675,0.5354330708661418,,39
59,107385.64190915546,0.4881889763779528,,39
67,107563.12490235275,0.5354330708661418,,39
59,107741.72467559537,0.4803149606299212,,39
67,107902.81877990376,0.5433070866141733,,39
59,108075.70426743211,0.4566929133858268,,39
50,108300.74394997177,0.3858267716535433,,39
59,108414.28136493778,0.3858267716535433,,39
67,108578.0341994049,0.5196850393700787,,39
59,108780.38113818041,0.4488188976377952,,39
67,108951.82104747745,0.5196850393700787,,39
59,109121.61696584482,0.4409448818897638,,39
67,109302.682725482,0.5433070866141733,,40
57,109481.28249872461,0.3937007874015748,,40
50,109662.63737400807,0.3858267716535433,,40
57,109815.26209056137,0.3858267716535433,,40
67,109993.86186380402,0.4724409448818897,,40
57,110175.12036720534,0.3858267716535433,,40
67,110351.06141028926,0.5039370078740157,,40
57,110529.66118353189,0.3858267716535433,,40
67,110689.44009509649,0.5196850393700787,,40
57,110852.59769146837,0.3858267716535433,,40
50,111065.46050325978,0.3858267716535433,,40
57,111220.84032185387,0.3858267716535433,,40
67,111373.15891595819,0.4803149606299212,,40
57,111578.03986833914,0.3858267716535433,,40
67,111733.41968693324,0.5039370078740157,,40
57,111913.45936947294,0.3937007874015748,,40
66,112090.61923341849,0.5354330708661418,,41
60,112278.83918806701,0.4488188976377952,,41
50,112473.49905201262,0.3858267716535433,,41
60,112593.79950552733,0.3779527559055118,,41
66,112805.01832638902,0.4960629921259842,,41
60,112960.39814498312,0.4330708661417323,,41
66,113130.12036720535,0.5196850393700787,,41
60,113317.59769146841,0.4488188976377952,,41
66,113502.1385077949,0.5275590551181102,,41
60,113647.9208207201,0.4488188976377952,,41
50,113868.23828103756,0.3858267716535433,,41
60,114008.77682979037,0.3858267716535433,,41
66,114187.89814498313,0.4881889763779528,,41
60,114365.97637627565,0.4251968503937008,,41
66,114544.57614951825,0.5039370078740157,,41
60,114704.47977763618,0.4330708661417323,,41
43,114878.55574135501,0.5433070866141733,,42
59,114878.55574135501,0.5433070866141733,,42
67,114878.55574135501,0.5433070866141733,,42
