pitch,Onset (ms),velocity,instrument,Measure
43,904.9502991781412,0.4409448818897638,,1
50,937.5183263890256,0.4251968503937008,,1
59,1000.0183263890256,0.4803149606299212,,1
57,1060.3301177722456,0.4881889763779528,,1
59,1081.1634511055788,0.5118110236220472,,1
50,1141.0784170919733,0.3858267716535433,,1
59,1203.5784170919733,0.4566929133858268,,1
50,1266.0784170919733,0.3779527559055118,,1
43,1365.7212742348304,0.4015748031496063,,1
50,1437.5183263890256,0.3779527559055118,,1
59,1684.9843127835836,0.4645669291338583,,1
57,1864.3777368198644,0.4881889763779528,,1
59,2042.977510062495,0.5196850393700787,,1
50,2225.6078955500234,0.3858267716535433,,1
59,2417.58068466567,0.4724409448818897,,1
50,2506.384539540953,0.3858267716535433,,1
43,2802.1838592688437,0.4173228346456692,,2
52,3005.6362402212253,0.3858267716535433,,2
60,3091.3561948697516,0.4724409448818897,,2
59,3274.780231150931,0.4960629921259842,,2
60,3399.780231150931,0.5275590551181102,,2
52,3664.099959042087,0.4094488188976378,,2
60,3782.5353331917468,0.4960629921259842,,2
52,3981.378870606712,0.3858267716535433,,2
43,4131.979777636191,0.4015748031496063,,2
52,4318.334652919638,0.3858267716535433,,2
60,4474.859596230296,0.4566929133858268,,2
59,4675.534199404899,0.4881889763779528,,2
60,4807.694063350476,0.5275590551181102,,2
52,5038.504720946849,0.4015748031496063,,2
60,5141.673655187212,0.4881889763779528,,2
52,5401.719006661135,0.3858267716535433,,2
43,5526.719006661135,0.4094488188976378,,3
54,5723.9128842121545,0.3858267716535433,,3
60,5879.2927028062595,0.4566929133858268,,3
59,6064.258689200818,0.4803149606299212,,3
60,6213.272294642994,0.5118110236220472,,3
54,6438.311977182677,0.4173228346456692,,3
60,6570.471841128255,0.4881889763779528,,3
54,6774.184993055693,0.3937007874015748,,3
43,6938.4650384071665,0.3937007874015748,,3
54,7089.372067885624,0.3858267716535433,,3
60,7264.3380542801815,0.4488188976377952,,3
59,7482.2178728742865,0.4724409448818897,,3
60,7572.365265164535,0.5039370078740157,,3
54,7825.097691468391,0.4094488188976378,,3
60,7950.097691468391,0.4803149606299212,,3
54,8191.19746471102,0.3937007874015748,,3
43,8339.417419359548,0.4173228346456692,,4
55,8556.305174461588,0.3858267716535433,,4
59,8682.297237953651,0.4330708661417323,,4
57,8822.60902933687,0.4251968503937008,,4
59,9001.95710189923,0.4881889763779528,,4
55,9173.397011196283,0.4094488188976378,,4
59,9368.05687514186,0.4724409448818897,,4
55,9513.788167658866,0.3937007874015748,,4
43,9622.72807695592,0.3937007874015748,,4
55,9685.22807695592,0.3858267716535433,,4
59,10089.723541808527,0.4251968503937008,,4
57,10228.187260629387,0.4330708661417323,,4
59,10406.78703387202,0.4803149606299212,,4
55,10544.9162855727,0.4173228346456692,,4
59,10756.84372321442,0.4724409448818897,,4
54,10942.58635359991,0.3937007874015748,,4
43,11113.385673327803,0.4173228346456692,,5
52,11299.785900085171,0.3858267716535433,,5
59,11428.725809382222,0.4094488188976378,,5
57,11610.54553727338,0.4409448818897638,,5
59,11814.655514597644,0.4960629921259842,,5
55,11962.87546924617,0.4330708661417323,,5
54,12180.755287840277,0.3937007874015748,,5
55,12328.9752424888,0.3937007874015748,,5
52,12526.764358135059,0.4015748031496063,,5
55,12682.144176729162,0.3858267716535433,,5
54,12866.514925028485,0.3858267716535433,,5
55,13016.123768565898,0.3858267716535433,,5
47,13217.943496457054,0.3937007874015748,,5
50,13380.83465291964,0.3858267716535433,,5
49,13576.900412556828,0.3858267716535433,,5
47,13753.742816184942,0.3858267716535433,,5
49,13964.814244756371,0.4173228346456692,,6
55,14068.686126842542,0.4094488188976378,,6
57,14261.254154053424,0.4881889763779528,,6
55,14421.701999858413,0.4724409448818897,,6
57,14604.133972647529,0.5039370078740157,,6
55,14745.698598497873,0.4724409448818897,,6
57,14957.501319586305,0.4960629921259842,,6
55,15112.88113818041,0.4803149606299212,,6
49,15326.80970960898,0.3937007874015748,,6
55,15470.080684665669,0.4094488188976378,,6
57,15648.680457908298,0.4803149606299212,,6
55,15804.213337726896,0.4881889763779528,,6
57,15998.873201672472,0.5196850393700787,,6
55,16161.259822987668,0.4881889763779528,,6
57,16341.753020266577,0.4960629921259842,,6
55,16497.393609835737,0.4724409448818897,,6
54,16707.852793509206,0.4488188976377952,,7
57,16879.29270280626,0.4488188976377952,,7
62,17054.258689200815,0.5118110236220472,,7
61,17232.858462443448,0.5196850393700787,,7
62,17365.018326389025,0.5433070866141733,,7
57,17557.90948285161,0.4881889763779528,,7
55,17745.437827522812,0.4015748031496063,,7
57,17924.03760076544,0.4015748031496063,,7
54,18079.37206788562,0.4015748031496063,,7
57,18274.031931831203,0.4015748031496063,,7
55,18436.61696584481,0.3858267716535433,,7
57,18598.776829790382,0.4015748031496063,,7
50,18793.81651233007,0.3937007874015748,,7
54,19006.23147831646,0.3858267716535433,,7
52,19177.671387613515,0.3858267716535433,,7
50,19306.395877409435,0.3779527559055118,,7
40,19545.222408021673,0.4173228346456692,,8
47,19663.595423894694,0.3858267716535433,,8
55,19811.038734552294,0.3858267716535433,,8
54,20020.794970379953,0.3858267716535433,,8
55,20176.174788974058,0.4173228346456692,,8
47,20353.799505527346,0.3858267716535433,,8
55,20510.1543808108,0.3937007874015748,,8
47,20706.06707922349,0.3858267716535433,,8
40,20874.836920493333,0.4015748031496063,,8
47,21045.953700538685,0.3858267716535433,,8
55,21224.553473781314,0.4015748031496063,,8
54,21406.390208475194,0.4566929133858268,,8
55,21550.687260629387,0.4960629921259842,,8
47,21772.489981717823,0.3937007874015748,,8
55,21915.73261210331,0.4566929133858268,,8
47,22085.60222661578,0.3858267716535433,,8
40,22337.784766298322,0.4173228346456692,,9
49,22474.751886479724,0.3858267716535433,,9
50,22606.469573554557,0.3937007874015748,,9
52,22855.58521981306,0.4094488188976378,,9
50,22949.349392148662,0.4173228346456692,,9
49,23194.343723214417,0.3858267716535433,,9
47,23344.53079804435,0.3858267716535433,,9
45,23533.328983985397,0.3858267716535433,,9
55,23635.10902933687,0.4803149606299212,,9
54,23857.110163123714,0.4960629921259842,,9
52,24059.587487386754,0.4724409448818897,,9
62,24191.089754960456,0.5275590551181102,,9
61,24357.784766298315,0.5511811023622047,,9
59,24548.28930144571,0.5354330708661418,,9
57,24703.669120039813,0.5275590551181102,,9
55,24880.347124574964,0.4881889763779528,,9
54,25084.088621173603,0.4881889763779528,,10
52,25287.46730598086,0.3937007874015748,,10
50,25419.167986252975,0.3858267716535433,,10
62,25619.8879409015,0.5118110236220472,,10
57,25775.267759495597,0.5275590551181102,,10
62,25930.6475780897,0.5354330708661418,,10
54,26132.46730598086,0.4881889763779528,,10
57,26299.587487386758,0.4724409448818897,,10
50,26466.446897817597,0.3937007874015748,,10
52,26691.48658035728,0.3858267716535433,,10
54,26823.646444302853,0.3858267716535433,,10
57,26985.347124574964,0.3937007874015748,,10
55,27134.406081491063,0.4015748031496063,,10
54,27359.445764030745,0.3858267716535433,,10
52,27530.948031604443,0.3858267716535433,,10
50,27671.106761763174,0.3858267716535433,,10
56,27865.766625708755,0.4251968503937008,,11
50,28083.646444302853,0.3858267716535433,,11
53,28242.433292375415,0.3858267716535433,,11
52,28407.824448838004,0.3858267716535433,,11
53,28563.204267432106,0.4015748031496063,,11
50,28727.348258361813,0.3779527559055118,,11
56,28897.18385926884,0.4094488188976378,,11
50,29125.56821301034,0.3858267716535433,,11
59,29254.383405754103,0.5118110236220472,,11
50,29409.76322434821,0.3937007874015748,,11
53,29664.848258361813,0.3937007874015748,,11
52,29790.182725481995,0.3858267716535433,,11
53,29946.968439767712,0.4015748031496063,,11
50,30147.382271967253,0.3858267716535433,,11
56,30302.762090561362,0.4566929133858268,,11
50,30514.355061082904,0.3937007874015748,,11
48,30678.465038407165,0.4173228346456692,,12
52,30861.248485119184,0.3858267716535433,,12
57,30993.941228883356,0.4881889763779528,,12
59,31172.541002125985,0.5275590551181102,,12
60,31307.64871187655,0.5433070866141733,,12
57,31529.74054861125,0.5196850393700787,,12
52,31660.664584892424,0.4330708661417323,,12
50,31886.940095096503,0.3858267716535433,,12
48,32073.204267432106,0.3937007874015748,,12
52,32246.157782171333,0.3779527559055118,,12
57,32399.519460175874,0.4724409448818897,,12
59,32578.119233418503,0.5196850393700787,,12
60,32733.4990520126,0.5433070866141733,,12
57,32935.31877990376,0.5118110236220472,,12
54,33113.918553146395,0.4645669291338583,,12
52,33300.48884793097,0.3858267716535433,,12
51,33447.89814498313,0.4173228346456692,,13
54,33626.49791822576,0.3858267716535433,,13
51,33793.3289839854,0.3858267716535433,,13
54,33937.25755541397,0.3779527559055118,,13
57,34139.07728330512,0.4488188976377952,,13
54,34317.67705654776,0.4330708661417323,,13
57,34473.9752424888,0.4803149606299212,,13
54,34674.87660303301,0.4566929133858268,,13
51,34862.682725481995,0.4015748031496063,,13
54,35014.99565065206,0.3937007874015748,,13
51,35228.78249872463,0.3858267716535433,,13
54,35366.05574135501,0.3858267716535433,,13
57,35525.22240802168,0.4488188976377952,,13
54,35706.39020847519,0.4251968503937008,,13
57,35878.635106434376,0.4803149606299212,,13
54,36057.234879677,0.4566929133858268,,13
55,36212.614698271114,0.4803149606299212,,14
54,36428.861863803984,0.4251968503937008,,14
52,36623.521727749576,0.3858267716535433,,14
55,36725.30177310104,0.4094488188976378,,14
54,36943.181591695145,0.4094488188976378,,14
55,37091.40154634367,0.4173228346456692,,14
57,37266.53760076544,0.4724409448818897,,14
54,37462.81311096952,0.4330708661417323,,14
55,37618.19292956363,0.4566929133858268,,14
54,37830.77796357723,0.4173228346456692,,14
52,37991.46957355456,0.3858267716535433,,14
50,38143.26095677452,0.3858267716535433,,14
48,38343.249618906026,0.4015748031496063,,14
47,38511.19179577678,0.3858267716535433,,14
45,38689.79156901941,0.3858267716535433,,14
43,38836.089754960456,0.3858267716535433,,14
42,39000.36980031193,0.4173228346456692,,15
48,39241.5602765024,0.3858267716535433,,15
50,39380.9707073414,0.3858267716535433,,15
48,39566.16912003981,0.3858267716535433,,15
50,39714.95029917814,0.4015748031496063,,15
48,39948.419686933245,0.3779527559055118,,15
50,40055.709936366344,0.3858267716535433,,15
48,40266.42989101488,0.3937007874015748,,15
42,40429.349392148666,0.4015748031496063,,15
48,40613.07955087882,0.3858267716535433,,15
50,40740.10902933687,0.4094488188976378,,15
48,40993.209936366344,0.4173228346456692,,15
50,41120.528530470656,0.4724409448818897,,15
48,41298.550072420774,0.4409448818897638,,15
50,41477.728076955915,0.4645669291338583,,15
48,41682.16118353188,0.4330708661417323,,15
43,41840.73261210332,0.4251968503937008,,16
47,41990.30744203527,0.3937007874015748,,16
53,42179.25868920081,0.4724409448818897,,16
52,42330.67025382667,0.4881889763779528,,16
53,42490.98204520989,0.5196850393700787,,16
47,42704.706535005804,0.4251968503937008,,16
53,42874.88227196726,0.4803149606299212,,16
47,43015.466172194014,0.4015748031496063,,16
43,43231.118099631654,0.4015748031496063,,16
47,43346.242816184946,0.3858267716535433,,16
53,43550.77796357723,0.4566929133858268,,16
52,43753.08521981307,0.4803149606299212,,16
53,43908.465038407165,0.5039370078740157,,16
47,44068.85619486975,0.4015748031496063,,16
53,44253.85052593551,0.4724409448818897,,16
47,44418.13057128699,0.3937007874015748,,16
43,44614.61016312372,0.4173228346456692,,17
48,44797.29723795365,0.3858267716535433,,17
52,44968.73714725071,0.4173228346456692,,17
50,45135.44349645705,0.4173228346456692,,17
52,45322.705401218955,0.4724409448818897,,17
48,45492.64304294231,0.4015748031496063,,17
52,45654.49678443891,0.4566929133858268,,17
48,45826.62263477905,0.3937007874015748,,17
43,45973.83918806703,0.4015748031496063,,17
48,46177.03079804435,0.3858267716535433,,17
52,46366.639641581765,0.4251968503937008,,17
50,46517.80177310105,0.4173228346456692,,17
52,46729.576149518274,0.4803149606299212,,17
48,46898.221274234835,0.4015748031496063,,17
52,47053.60109282893,0.4645669291338583,,17
48,47209.150979450256,0.4015748031496063,,17
43,47335.517192602165,0.4251968503937008,,18
54,47566.180457908304,0.4645669291338583,,18
60,47744.78023115094,0.5275590551181102,,18
59,47923.380004393555,0.5354330708661418,,18
60,48078.75982298766,0.5511811023622047,,18
54,48295.75528784027,0.5118110236220472,,18
60,48435.95936947293,0.5275590551181102,,18
54,48617.12716992643,0.4881889763779528,,18
43,48826.991115504665,0.4015748031496063,,18
54,48948.5387345523,0.4173228346456692,,18
60,49129.734879677,0.5118110236220472,,18
59,49305.73828103756,0.5196850393700787,,18
60,49461.118099631654,0.5354330708661418,,18
54,49690.49451686521,0.4645669291338583,,18
60,49818.31764611691,0.5039370078740157,,18
54,50033.37433545932,0.4251968503937008,,18
43,50198.7371472507,0.4173228346456692,,19
50,50261.2371472507,0.3937007874015748,,19
59,50547.69406335047,0.3937007874015748,,19
57,50688.09655768154,0.4251968503937008,,19
59,50867.353927296055,0.4881889763779528,,19
55,51038.793836593104,0.4330708661417323,,19
54,51256.673655187216,0.3937007874015748,,19
52,51432.90948285162,0.3858267716535433,,19
50,51581.095423894694,0.4015748031496063,,19
48,51805.511523667934,0.3858267716535433,,19
47,51942.43329237542,0.3779527559055118,,19
45,52137.093156320996,0.3858267716535433,,19
43,52272.274562216684,0.4015748031496063,,19
42,52433.53306561805,0.3779527559055118,,19
40,52625.63057128699,0.3858267716535433,,19
38,52784.853927296055,0.3858267716535433,,19
37,53001.9117504253,0.4094488188976378,,20
45,53190.330117772246,0.3779527559055118,,20
52,53343.87320167247,0.3937007874015748,,20
54,53499.25302026658,0.4251968503937008,,20
55,53659.0319318312,0.4881889763779528,,20
52,53879.67252140037,0.4488188976377952,,20
54,54035.05233999447,0.4724409448818897,,20
55,54175.09202253415,0.4881889763779528,,20
37,54379.372067885626,0.4803149606299212,,20
45,54630.131705073836,0.3858267716535433,,20
52,54726.23147831646,0.4409448818897638,,20
54,54880.131705073836,0.4803149606299212,,20
55,55060.21107015319,0.5196850393700787,,20
52,55276.872067885626,0.4724409448818897,,20
54,55394.71220394006,0.4803149606299212,,20
55,55582.21220394004,0.4881889763779528,,20
36,55816.15211323709,0.4803149606299212,,21
45,55963.21560530059,0.3858267716535433,,21
50,56131.80970960898,0.3779527559055118,,21
52,56343.11356448426,0.3937007874015748,,21
54,56465.789301445715,0.4645669291338583,,21
50,56664.19066198993,0.3937007874015748,,21
52,56858.85052593551,0.4173228346456692,,21
54,56978.368666525086,0.4645669291338583,,21
36,57193.34032185387,0.4330708661417323,,21
45,57364.33238534594,0.3858267716535433,,21
50,57514.16798625297,0.3858267716535433,,21
52,57693.07955087882,0.4094488188976378,,21
54,57871.36753273822,0.4724409448818897,,21
50,58049.96730598086,0.4015748031496063,,21
52,58235.77796357723,0.4251968503937008,,21
54,58383.946897817594,0.4645669291338583,,21
36,58608.986580357276,0.4645669291338583,,22
45,58778.53873455228,0.3937007874015748,,22
50,58919.746217545486,0.3937007874015748,,22
54,59098.34599078812,0.4566929133858268,,22
57,59259.009256094236,0.5196850393700787,,22
61,59405.35279350919,0.5354330708661418,,22
62,59587.70540121896,0.5433070866141733,,22
45,60682.115832057956,0.4251968503937008,,22
47,60821.707668792646,0.4094488188976378,,22
48,61017.97184112825,0.4094488188976378,,22
50,61187.80744203527,0.4488188976377952,,22
52,61392.97184112826,0.4724409448818897,,22
54,61527.342589427564,0.5039370078740157,,22
55,61682.72240802168,0.5039370078740157,,22
57,61861.32218126431,0.5433070866141733,,23
54,62039.921954506935,0.4803149606299212,,23
50,62218.521727749576,0.3858267716535433,,23
52,62462.297237953644,0.3858267716535433,,23
54,62575.72127423483,0.4330708661417323,,23
55,62729.76322434821,0.4803149606299212,,23
57,62925.426489654325,0.5118110236220472,,23
59,63088.30063931419,0.5354330708661418,,23
60,63245.086353599916,0.5511811023622047,,23
57,63462.96617219401,0.5275590551181102,,23
54,63624.0999590421,0.4881889763779528,,23
55,63782.62603613959,0.4645669291338583,,23
57,63958.07955087882,0.4881889763779528,,23
59,64136.67932412145,0.5039370078740157,,23
60,64292.05914271555,0.5118110236220472,,23
62,64484.785900085175,0.5275590551181102,,23
63,64672.47864384934,0.5669291338582677,,24
62,64827.85846244345,0.5275590551181102,,24
61,65004.3267164117,0.5196850393700787,,24
62,65169.67252140037,0.5196850393700787,,24
62,65247.558008928696,0.5275590551181102,,24
60,65544.67252140037,0.4803149606299212,,24
59,65738.12490235275,0.4330708661417323,,24
60,65850.01265745479,0.4251968503937008,,24
60,65961.95710189923,0.4330708661417323,,24
57,66233.43669373596,0.3858267716535433,,24
54,66412.03646697859,0.3858267716535433,,24
52,66595.324448838,0.3858267716535433,,24
50,66743.54440348654,0.4015748031496063,,24
45,66978.96957355455,0.3858267716535433,,24
47,67103.21560530057,0.3858267716535433,,24
48,67279.6215009922,0.3937007874015748,,24
38,67475.74394997179,0.4094488188976378,,25
45,67603.3176461169,0.3858267716535433,,25
50,67800.44916539128,0.3858267716535433,,25
54,68013.28363251148,0.3858267716535433,,25
57,68151.59429010785,0.4566929133858268,,25
59,68306.97410870194,0.4960629921259842,,25
60,68444.71220394004,0.5118110236220472,,25
57,68687.39360983574,0.4960629921259842,,25
59,68847.26322434821,0.5118110236220472,,25
55,68998.15324702395,0.4566929133858268,,25
50,69213.36299759084,0.3858267716535433,,25
48,69414.25302026658,0.3858267716535433,,25
47,69557.17252140037,0.3937007874015748,,25
43,69742.81311096952,0.3779527559055118,,25
45,69914.37206788563,0.3858267716535433,,25
47,70048.15324702393,0.3858267716535433,,25
38,70258.87320167247,0.4173228346456692,,26
43,70498.72580938223,0.3858267716535433,,26
47,70628.77116085614,0.3858267716535433,,26
50,70774.93329237541,0.3937007874015748,,26
55,70939.53079804436,0.4566929133858268,,26
57,71122.42195450694,0.4960629921259842,,26
59,71270.64190915546,0.5196850393700787,,26
55,71418.86186380399,0.5039370078740157,,26
61,71630.70993636634,0.5433070866141733,,26
58,71808.18159169515,0.5275590551181102,,26
57,71987.90948285161,0.5196850393700787,,26
58,72166.50925609423,0.5196850393700787,,26
58,72368.32898398538,0.5275590551181102,,26
57,72500.48884793097,0.5118110236220472,,26
56,72679.08862117359,0.4881889763779528,,26
57,72871.80404067472,0.4803149606299212,,26
57,73142.77342842983,0.5118110236220472,,27
55,73214.88794090149,0.4330708661417323,,27
54,73401.6736551872,0.3937007874015748,,27
55,73542.73374589015,0.3937007874015748,,27
55,73657.80744203528,0.4015748031496063,,27
52,73929.28703387201,0.3858267716535433,,27
49,74060.12036720535,0.3858267716535433,,27
47,74278.00018579946,0.3858267716535433,,27
45,74457.01379124162,0.3937007874015748,,27
49,74620.88000439355,0.3858267716535433,,27
52,74815.53986833914,0.3858267716535433,,27
55,74931.22580938222,0.3937007874015748,,27
57,75114.13397264753,0.4881889763779528,,27
61,75288.42535586748,0.5196850393700787,,27
62,75467.02512911012,0.5354330708661418,,27
61,75649.51946017587,0.5354330708661418,,27
62,75811.16345110559,0.5590551181102362,,28
57,76015.6192334185,0.4960629921259842,,28
54,76181.42422208063,0.4015748031496063,,28
52,76360.02399532327,0.3858267716535433,,28
54,76506.71900666114,0.4015748031496063,,28
57,76694.00358715998,0.4488188976377952,,28
50,76873.89587740945,0.3937007874015748,,28
54,77074.42308829378,0.3937007874015748,,28
45,77271.25415405341,0.3937007874015748,,28
50,77393.0058547337,0.3858267716535433,,28
49,77646.25415405343,0.3858267716535433,,28
47,77765.60222661578,0.3858267716535433,,28
45,77928.37433545932,0.4015748031496063,,28
43,78099.58181845253,0.3858267716535433,,28
42,78244.33805428019,0.3858267716535433,,28
40,78473.0908887473,0.3858267716535433,,28
38,78612.16118353189,0.4173228346456692,,29
60,78953.31764611692,0.3937007874015748,,29
59,79124.80857582213,0.4409448818897638,,29
57,79296.19746471102,0.4488188976377952,,29
55,79481.94009509649,0.4015748031496063,,29
54,79667.56934679719,0.3858267716535433,,29
52,79874.7745622167,0.3858267716535433,,29
50,80017.73941482439,0.3937007874015748,,29
60,80180.1146982711,0.4960629921259842,,29
59,80374.93896130966,0.5196850393700787,,29
57,80530.31877990376,0.5118110236220472,,29
55,80685.69859849787,0.4960629921259842,,29
54,80877.90948285161,0.4251968503937008,,29
52,81094.39474362257,0.3858267716535433,,29
50,81244.71787287429,0.3858267716535433,,29
48,81422.41061663844,0.4094488188976378,,30
59,81594.57614951828,0.4094488188976378,,30
57,81734.07728330512,0.4645669291338583,,30
55,81914.23601346386,0.4330708661417323,,30
54,82132.11583205797,0.4094488188976378,,30
52,82314.01492502847,0.3937007874015748,,30
50,82451.77569600353,0.3858267716535433,,30
48,82650.2961041668,0.3858267716535433,,30
47,82828.89587740944,0.3937007874015748,,30
57,82961.05574135501,0.3937007874015748,,30
55,83116.43555994911,0.4251968503937008,,30
54,83341.4752424888,0.4488188976377952,,30
52,83533.63510643436,0.4173228346456692,,30
50,83675.45483432554,0.3937007874015748,,30
48,83908.63510643438,0.3858267716535433,,30
47,84041.17478897405,0.3858267716535433,,30
45,84215.33578670648,0.4094488188976378,,31
55,84343.414017999,0.3937007874015748,,31
54,84555.4945168652,0.4330708661417323,,31
52,84733.13624022123,0.4330708661417323,,31
54,84902.43329237543,0.4803149606299212,,31
57,85057.81311096952,0.5118110236220472,,31
50,85241.25415405343,0.4330708661417323,,31
57,85391.79270280625,0.5039370078740157,,31
52,85593.61243069741,0.4566929133858268,,31
57,85748.99224929152,0.4881889763779528,,31
54,85927.59202253415,0.4645669291338583,,31
57,86121.67365518722,0.4960629921259842,,31
55,86261.57161437089,0.5039370078740157,,31
57,86468.03986833914,0.5118110236220472,,31
52,86635.99338307837,0.4488188976377952,,31
57,86797.37093409877,0.4881889763779528,,31
54,86999.19066198994,0.4881889763779528,,32
57,87137.54100212597,0.4803149606299212,,32
50,87356.39020847518,0.3858267716535433,,32
57,87521.055741355,0.4330708661417323,,32
55,87667.14984566341,0.4488188976377952,,32
57,87868.96957355455,0.4645669291338583,,32
52,87997.05914271556,0.3858267716535433,,32
57,88133.28930144571,0.4566929133858268,,32
54,88381.54893863392,0.4094488188976378,,32
57,88560.14871187654,0.4488188976377952,,32
50,88741.63964158177,0.3858267716535433,,32
57,88921.97977763618,0.4173228346456692,,32
55,89072.72807695591,0.4251968503937008,,32
57,89254.0319318312,0.4645669291338583,,32
52,89421.01605881534,0.3858267716535433,,32
57,89585.30744203528,0.4488188976377952,,32
54,89787.12716992645,0.4330708661417323,,33
57,89931.645310516,0.4566929133858268,,33
50,90144.3267164117,0.3858267716535433,,33
57,90288.85619486973,0.4251968503937008,,33
52,90455.0863535999,0.3937007874015748,,33
57,90601.14644430285,0.4330708661417323,,33
54,90835.5058547337,0.4015748031496063,,33
57,90992.41628557269,0.4645669291338583,,33
55,91169.48544657041,0.4488188976377952,,33
57,91348.08521981306,0.4645669291338583,,33
57,91457.02512911012,0.4645669291338583,,33
57,91612.40494770421,0.4803149606299212,,33
59,91883.88453954093,0.5039370078740157,,33
57,92020.29043523256,0.4724409448818897,,33
50,92212.03646697859,0.3858267716535433,,33
57,92369.31537854321,0.4015748031496063,,33
57,92621.50358716,0.4645669291338583,,34
57,92838.32898398537,0.4645669291338583,,34
59,92909.0432696997,0.4881889763779528,,34
57,93033.43669373597,0.4803149606299212,,34
60,93243.58975496046,0.5118110236220472,,34
57,93461.46957355454,0.4724409448818897,,34
50,93623.44236267022,0.3779527559055118,,34
57,93769.44576403078,0.3858267716535433,,34
59,93957.42195450694,0.4566929133858268,,34
57,94088.77682979037,0.4409448818897638,,34
60,94291.4015463437,0.4803149606299212,,34
57,94493.22127423483,0.4488188976377952,,34
62,94648.60109282893,0.5196850393700787,,34
57,94850.4208207201,0.4566929133858268,,34
59,95005.80063931417,0.4645669291338583,,34
57,95144.11696584482,0.4409448818897638,,34
60,95339.78023115093,0.4881889763779528,,35
57,95542.33692049334,0.4094488188976378,,35
59,95696.9797776362,0.4330708661417323,,35
57,95810.50585473371,0.3937007874015748,,35
60,96033.06821301034,0.4724409448818897,,35
57,96232.7790973641,0.4173228346456692,,35
57,96481.03873455228,0.4015748031496063,,35
57,96558.93555994914,0.3937007874015748,,35
59,96745.35846244346,0.4251968503937008,,35
57,96858.85619486976,0.3858267716535433,,35
57,97032.89814498313,0.3937007874015748,,35
57,97117.0478048471,0.3858267716535433,,35
59,97436.53760076546,0.4251968503937008,,35
57,97567.46730598086,0.3937007874015748,,35
55,97770.68726062938,0.3858267716535433,,35
57,97988.56707922349,0.3858267716535433,,35
57,98113.56707922349,0.4173228346456692,,36
57,98190.21673908744,0.3937007874015748,,36
55,98484.91628557269,0.3858267716535433,,36
57,98674.3267164117,0.3858267716535433,,36
57,98911.77569600353,0.4094488188976378,,36
57,98974.27569600353,0.3937007874015748,,36
54,99199.31537854321,0.3858267716535433,,36
57,99360.08635359994,0.3937007874015748,,36
55,99510.07501573142,0.4015748031496063,,36
57,99711.89474362257,0.3937007874015748,,36
54,99890.49451686522,0.3858267716535433,,36
57,100069.00925609426,0.4015748031496063,,36
55,100224.47410870195,0.4015748031496063,,36
57,100426.29383659309,0.4015748031496063,,36
52,100540.36980031189,0.3858267716535433,,36
57,100738.48204520988,0.4015748031496063,,36
54,100938.87320167245,0.4251968503937008,,37
57,101120.9253558675,0.4173228346456692,,37
50,101296.07274815773,0.3858267716535433,,37
52,101534.95029917813,0.3858267716535433,,37
53,101653.27229464301,0.3937007874015748,,37
50,101800.78363251148,0.3858267716535433,,37
54,102024.56481164979,0.3858267716535433,,37
50,102172.78476629834,0.3858267716535433,,37
55,102321.00472094683,0.4015748031496063,,37
50,102493.50472094686,0.3858267716535433,,37
56,102687.1044941895,0.4173228346456692,,37
50,102886.30517446161,0.3779527559055118,,37
57,103035.63057128698,0.4645669291338583,,37
50,103163.0058547337,0.3858267716535433,,37
58,103385.88000439353,0.4803149606299212,,37
50,103548.20993636633,0.3858267716535433,,37
59,103726.80970960898,0.5196850393700787,,38
50,103845.73828103753,0.3937007874015748,,38
60,104058.6237685659,0.5039370078740157,,38
50,104248.52739668381,0.4094488188976378,,38
61,104424.72354180853,0.5275590551181102,,38
50,104596.58862117362,0.4015748031496063,,38
62,104821.6283037133,0.5275590551181102,,38
50,104884.1283037133,0.3937007874015748,,38
63,105110.48317899673,0.5354330708661418,,38
50,105264.38907468834,0.3937007874015748,,38
64,105510.01832638902,0.5118110236220472,,38
50,105607.69406335047,0.3858267716535433,,38
65,105819.46277083347,0.5275590551181102,,38
50,105945.84599078812,0.3858267716535433,,38
66,106162.34258942757,0.5196850393700787,,38
50,106359.36639895137,0.3858267716535433,,38
67,106514.7462175455,0.5433070866141733,,39
59,106732.56367786294,0.4803149606299212,,39
50,106895.16571867927,0.3858267716535433,,39
59,107065.98204520988,0.3937007874015748,,39
67,107182.70540121898,0.5354330708661418,,39
59,107407.74508375864,0.4881889763779528,,39
67,107470.24508375865,0.5354330708661418,,39
59,107741.72467559537,0.4803149606299212,,39
67,107815.65324702395,0.5433070866141733,,39
59,108098.92422208063,0.4566929133858268,,39
50,108277.52399532325,0.3858267716535433,,39
59,108451.29383659309,0.3858267716535433,,39
67,108588.28363251145,0.5196850393700787,,39
59,108790.10336040263,0.4488188976377952,,39
67,108852.60336040263,0.5196850393700787,,39
59,109141.54893863389,0.4409448818897638,,39
67,109209.8029068879,0.5433070866141733,,40
57,109504.50245337315,0.3937007874015748,,40
50,109683.10222661578,0.3858267716535433,,40
57,109855.46050325978,0.3858267716535433,,40
67,109993.86186380402,0.4724409448818897,,40
57,110200.99905201262,0.3858267716535433,,40
67,110323.34032185389,0.5039370078740157,,40
57,110564.44009509649,0.3858267716535433,,40
67,110647.39927876997,0.5196850393700787,,40
57,110870.29610416677,0.3858267716535433,,40
50,111065.46050325978,0.3858267716535433,,40
57,111209.89927876997,0.3858267716535433,,40
67,111376.22014044797,0.4803149606299212,,40
57,111608.11923341849,0.3858267716535433,,40
67,111733.41968693324,0.5039370078740157,,40
57,111938.11923341849,0.3937007874015748,,40
66,112090.61923341849,0.5354330708661418,,41
60,112278.83918806701,0.4488188976377952,,41
50,112475.95936947294,0.3858267716535433,,41
60,112621.71900666114,0.3779527559055118,,41
66,112805.01832638902,0.4960629921259842,,41
60,112964.59882525523,0.4330708661417323,,41
66,113138.99791822578,0.5196850393700787,,41
60,113330.69859849785,0.4488188976377952,,41
66,113484.8595962303,0.5275590551181102,,41
60,113669.92195450694,0.4488188976377952,,41
50,113891.45823568608,0.3858267716535433,,41
60,114031.99678443889,0.3858267716535433,,41
66,114188.41968693324,0.4881889763779528,,41
60,114365.97637627565,0.4251968503937008,,41
66,114489.38340575411,0.5039370078740157,,41
60,114709.00358715997,0.4330708661417323,,41
43,114896.87773681985,0.5433070866141733,,42
59,114896.87773681985,0.5433070866141733,,42
67,114896.87773681985,0.5433070866141733,,42
